<svg xmlns="http://www.w3.org/2000/svg" width="64" height="64" viewBox="0 0 64 64" fill="none">
  <defs>
    <linearGradient id="rg" x1="8" y1="8" x2="56" y2="56" gradientUnits="userSpaceOnUse">
      <stop stop-color="#34D399"/>
      <stop offset="0.5" stop-color="#38BDF8"/>
      <stop offset="1" stop-color="#3B82F6"/>
    </linearGradient>
    <linearGradient id="rg2" x1="10" y1="10" x2="54" y2="54" gradientUnits="userSpaceOnUse">
      <stop stop-color="#10B981" stop-opacity="0.35"/>
      <stop offset="0.5" stop-color="#0EA5E9" stop-opacity="0.22"/>
      <stop offset="1" stop-color="#2563EB" stop-opacity="0.28"/>
    </linearGradient>
    <filter id="shadow" x="0" y="0" width="64" height="64" color-interpolation-filters="sRGB">
      <feDropShadow dx="0" dy="10" stdDeviation="8" flood-color="#10B981" flood-opacity="0.28"/>
    </filter>
  </defs>

  <!-- Rounded square background (works well on dark UIs) -->
  <g filter="url(#shadow)">
    <rect x="8" y="8" width="48" height="48" rx="14" fill="url(#rg2)" stroke="url(#rg)" stroke-width="1.5"/>
  </g>

  <!-- Modern "R" mark -->
  <path
    d="M23 44V20.5c0-.8.7-1.5 1.5-1.5H35c5.2 0 8.5 2.8 8.5 7.3 0 3.6-2 6-5.6 6.8l6 9.9c.4.7-.1 1.5-.9 1.5h-5.2c-.5 0-.9-.2-1.2-.6l-5.5-9.2H28.5V44c0 .8-.7 1.5-1.5 1.5h-2.5c-.8 0-1.5-.7-1.5-1.5Zm5.5-14.6h5.8c2.5 0 4-1.1 4-3.1 0-1.9-1.4-3-4-3h-5.8v6.1Z"
    fill="#F8FAFC"
  />
</svg>


